# xmcd
#
# Track frame offsets: 
#        150
#        19482
#        41302
#        62671
#        83046
#        101457
#        119080
#        145199
#        161044
#        177351
#        201483
#
# Disc length: 2886 seconds
#
# Revision: 1
# Processed by: cddbd v1.5.2PL0 Copyright (c) Steve Scherf et al.
# Submitted via: ExactAudioCopy v0.99pb3
#
DISCID=9a0b440b
DTITLE=Lost Boy - Bleu Edmondson
DYEAR=2007
DGENRE=Country
TTITLE0=American Saint
TTITLE1=Last Call
TTITLE2=Ressurection
TTITLE3=The Echo (Maybe Tonight)
TTITLE4=Jesus is Cryin'
TTITLE5=Back To You
TTITLE6=Finger on the Trigger
TTITLE7=You Call It Trouble
TTITLE8=Last Last Time
TTITLE9=Another Morning After (The Night Before)
TTITLE10=Don't Fade Away
EXTD=
EXTT0=
EXTT1=
EXTT2=
EXTT3=
EXTT4=
EXTT5=
EXTT6=
EXTT7=
EXTT8=
EXTT9=
EXTT10=
PLAYORDER=
